<?xml version="1.0" encoding="UTF-8"?>
<svg xmlns="http://www.w3.org/2000/svg" width="283.613" height="89.321" viewBox="0 0 283.613 89.321">
  <g id="ComP-ASS-Logo" transform="translate(0 0)">
    <path id="Pfad_192" data-name="Pfad 192" d="M43.39,66.407,38.52,52.034,23.873,46.89,59.545,30.739Z" fill="#cc2727"/>
    <g id="Gruppe_46" data-name="Gruppe 46">
      <path id="Pfad_193" data-name="Pfad 193" d="M76.254,13.067a44.68,44.68,0,1,0,0,63.187A44.726,44.726,0,0,0,76.254,13.067Zm-28.2,59.685a28.559,28.559,0,0,1-10.93-.81,28.308,28.308,0,1,1,24.72-49.783l11.47-5.19-5.3,11.7A28.291,28.291,0,0,1,48.056,72.752Z" fill="#1f2434"/>
    </g>
    <g id="Gruppe_47" data-name="Gruppe 47">
      <path id="Pfad_194" data-name="Pfad 194" d="M110.519,45.157q-6.078,0-8.244-3.362t-2.167-11.06q0-7.693,2.187-10.957t8.224-3.26a35.21,35.21,0,0,1,7.94,1.012l-.163,3.646A41.589,41.589,0,0,0,111,20.527q-3.645,0-4.941,2.168t-1.3,8.142q0,5.974,1.256,8.143t4.9,2.167a45.773,45.773,0,0,0,7.373-.608l.122,3.727A37.952,37.952,0,0,1,110.519,45.157Z" fill="#1f2434"/>
      <path id="Pfad_195" data-name="Pfad 195" d="M123.461,26.645q2.085-2.633,6.947-2.633t6.947,2.633q2.087,2.632,2.087,7.9t-2.025,7.939q-2.028,2.674-7.009,2.674T123.4,42.483q-2.026-2.673-2.025-7.939T123.461,26.645Zm3.3,13.165q.932,1.62,3.646,1.62t3.646-1.62a11.223,11.223,0,0,0,.932-5.307q0-3.685-.993-5.226t-3.585-1.539q-2.594,0-3.585,1.539t-.992,5.226A11.212,11.212,0,0,0,126.762,39.81Z" fill="#1f2434"/>
      <path id="Pfad_196" data-name="Pfad 196" d="M148.232,44.711h-4.415V24.457h4.375v1.256a10.513,10.513,0,0,1,5.266-1.7q3.524,0,5.144,1.984a15.369,15.369,0,0,1,7.332-1.984q3.646,0,5.145,2.248t1.5,7.595V44.711H168.2V33.977a11.59,11.59,0,0,0-.668-4.659,2.773,2.773,0,0,0-2.776-1.377,10.986,10.986,0,0,0-3.928.81l-.69.283a21.964,21.964,0,0,1,.324,5.186V44.711H156.09V34.3a13.1,13.1,0,0,0-.647-4.983q-.649-1.377-2.836-1.377a8.827,8.827,0,0,0-3.768.81l-.607.243Z" fill="#1f2434"/>
      <path id="Pfad_197" data-name="Pfad 197" d="M188.458,36.083h-5.672v8.628h-4.5V16.963h10.168q9.438,0,9.438,9.317,0,4.78-2.37,7.291T188.458,36.083Zm-5.672-3.889h5.631q4.861,0,4.861-5.914a6.04,6.04,0,0,0-1.175-4.131,4.742,4.742,0,0,0-3.686-1.3h-5.631Z" fill="#1f2434"/>
      <path id="Pfad_198" data-name="Pfad 198" d="M201.337,35.8V31.789H213.45V35.8Z" fill="#1f2434"/>
      <path id="Pfad_199" data-name="Pfad 199" d="M216.57,44.711l6.846-27.748h8.952l6.886,27.748h-4.537l-1.5-5.954H222.565l-1.5,5.954ZM226.9,20.731l-3.443,14.055h8.872l-3.4-14.055Z" fill="#1f2434"/>
      <path id="Pfad_200" data-name="Pfad 200" d="M251.084,20.446q-5.146,0-5.145,3.606a2.92,2.92,0,0,0,1.215,2.653,23.239,23.239,0,0,0,5.367,1.944,14.314,14.314,0,0,1,5.854,2.755q1.7,1.6,1.7,5.043,0,4.375-2.491,6.542a9.981,9.981,0,0,1-6.786,2.168,40.229,40.229,0,0,1-7.615-.81l-1.458-.283.445-3.606a68.4,68.4,0,0,0,8.345.729q5.022,0,5.023-4.455a2.977,2.977,0,0,0-1.134-2.573,17.331,17.331,0,0,0-5.1-1.823,13.881,13.881,0,0,1-5.914-2.734q-1.944-1.741-1.944-5.509a6.794,6.794,0,0,1,2.451-5.692,10.726,10.726,0,0,1,6.785-1.924,44.483,44.483,0,0,1,7.372.729l1.418.243-.364,3.646Q253.432,20.447,251.084,20.446Z" fill="#1f2434"/>
      <path id="Pfad_201" data-name="Pfad 201" d="M273.08,20.446q-5.146,0-5.145,3.606A2.92,2.92,0,0,0,269.15,26.7a23.259,23.259,0,0,0,5.367,1.944,14.314,14.314,0,0,1,5.854,2.755q1.7,1.6,1.7,5.043,0,4.375-2.491,6.542a9.981,9.981,0,0,1-6.786,2.168,40.237,40.237,0,0,1-7.615-.81l-1.458-.283.446-3.606a68.367,68.367,0,0,0,8.344.729q5.022,0,5.023-4.455a2.977,2.977,0,0,0-1.134-2.573,17.33,17.33,0,0,0-5.105-1.823,13.881,13.881,0,0,1-5.914-2.734q-1.944-1.741-1.944-5.509a6.794,6.794,0,0,1,2.451-5.692,10.726,10.726,0,0,1,6.785-1.924,44.483,44.483,0,0,1,7.372.729l1.418.243-.364,3.646Q275.428,20.447,273.08,20.446Z" fill="#1f2434"/>
    </g>
    <g id="Gruppe_48" data-name="Gruppe 48">
      <path id="Pfad_202" data-name="Pfad 202" d="M107.012,65.461H101.9V56.185h1.032v8.351h4.075Z" fill="#1f2434"/>
      <path id="Pfad_203" data-name="Pfad 203" d="M112.643,64.63l.389-.041.026.791a19.067,19.067,0,0,1-2.614.215,2.355,2.355,0,0,1-2.051-.838,4.5,4.5,0,0,1-.6-2.608q0-3.523,2.8-3.525a2.563,2.563,0,0,1,2.025.758,3.526,3.526,0,0,1,.671,2.379l-.054.763h-4.424a2.75,2.75,0,0,0,.4,1.65,1.642,1.642,0,0,0,1.4.536Q111.611,64.71,112.643,64.63Zm-.362-2.909a2.907,2.907,0,0,0-.4-1.743,1.529,1.529,0,0,0-1.287-.509,1.651,1.651,0,0,0-1.341.536,2.716,2.716,0,0,0-.462,1.716Z" fill="#1f2434"/>
      <path id="Pfad_204" data-name="Pfad 204" d="M114.854,65.461v-6.7h.992v.911a6.546,6.546,0,0,1,2.453-1.06v1.02a7.246,7.246,0,0,0-1.172.335,7.864,7.864,0,0,0-.932.4l-.335.175v4.92Z" fill="#1f2434"/>
      <path id="Pfad_205" data-name="Pfad 205" d="M120.5,65.461h-1.006v-6.7h.992v.469a4.28,4.28,0,0,1,2.078-.6,1.979,1.979,0,0,1,1.8.725,5.11,5.11,0,0,1,.463,2.573v3.539h-.992V61.948a4.537,4.537,0,0,0-.275-1.91,1.207,1.207,0,0,0-1.174-.515,3.574,3.574,0,0,0-.9.126,4.493,4.493,0,0,0-.73.249l-.255.121Z" fill="#1f2434"/>
      <path id="Pfad_206" data-name="Pfad 206" d="M131.25,64.63l.388-.041.027.791a19.092,19.092,0,0,1-2.615.215,2.355,2.355,0,0,1-2.05-.838,4.5,4.5,0,0,1-.6-2.608q0-3.523,2.8-3.525a2.562,2.562,0,0,1,2.024.758,3.521,3.521,0,0,1,.671,2.379l-.054.763h-4.423a2.75,2.75,0,0,0,.4,1.65,1.644,1.644,0,0,0,1.4.536Q130.217,64.71,131.25,64.63Zm-.363-2.909a2.915,2.915,0,0,0-.395-1.743,1.532,1.532,0,0,0-1.287-.509,1.651,1.651,0,0,0-1.341.536,2.71,2.71,0,0,0-.462,1.716Z" fill="#1f2434"/>
      <path id="Pfad_207" data-name="Pfad 207" d="M134.466,65.461h-1.005v-6.7h.992v.469a4.277,4.277,0,0,1,2.078-.6,1.98,1.98,0,0,1,1.8.725,5.113,5.113,0,0,1,.462,2.573v3.539H137.8V61.948a4.557,4.557,0,0,0-.274-1.91,1.208,1.208,0,0,0-1.174-.515,3.574,3.574,0,0,0-.9.126,4.511,4.511,0,0,0-.731.249l-.255.121Z" fill="#1f2434"/>
      <path id="Pfad_208" data-name="Pfad 208" d="M147.791,58.759H148.8v6.7h-1.005v-.47a3.83,3.83,0,0,1-1.984.6,1.992,1.992,0,0,1-1.816-.711,5.337,5.337,0,0,1-.449-2.627v-3.5h1v3.484A4.923,4.923,0,0,0,144.8,64.2c.17.332.554.5,1.154.5a3.315,3.315,0,0,0,.9-.127,4.06,4.06,0,0,0,.7-.248l.242-.121Z" fill="#1f2434"/>
      <path id="Pfad_209" data-name="Pfad 209" d="M151.732,65.461h-1.006v-6.7h.992v.469a4.28,4.28,0,0,1,2.078-.6,1.978,1.978,0,0,1,1.8.725,5.1,5.1,0,0,1,.463,2.573v3.539h-.992V61.948a4.537,4.537,0,0,0-.275-1.91,1.206,1.206,0,0,0-1.173-.515,3.588,3.588,0,0,0-.9.126,4.528,4.528,0,0,0-.73.249l-.255.121Z" fill="#1f2434"/>
      <path id="Pfad_210" data-name="Pfad 210" d="M163.073,55.836v9.625h-.992V65a4.083,4.083,0,0,1-2.038.59,2.987,2.987,0,0,1-.939-.134,1.919,1.919,0,0,1-.75-.482,3.781,3.781,0,0,1-.725-2.675,4.746,4.746,0,0,1,.651-2.815,2.519,2.519,0,0,1,2.151-.865,8.518,8.518,0,0,1,1.65.174V55.836ZM159.587,64.6a1.761,1.761,0,0,0,.624.093,3.343,3.343,0,0,0,.857-.127,5.071,5.071,0,0,0,.744-.248l.269-.121V59.656a8.823,8.823,0,0,0-1.6-.161,1.536,1.536,0,0,0-1.421.651,3.934,3.934,0,0,0-.4,2.017,3.32,3.32,0,0,0,.469,2.092A1.156,1.156,0,0,0,159.587,64.6Z" fill="#1f2434"/>
      <path id="Pfad_211" data-name="Pfad 211" d="M173.248,65.461H168.14V56.185h1.032v8.351h4.076Z" fill="#1f2434"/>
      <path id="Pfad_212" data-name="Pfad 212" d="M178.878,64.63l.388-.041.027.791a19.092,19.092,0,0,1-2.615.215,2.353,2.353,0,0,1-2.05-.838,4.5,4.5,0,0,1-.6-2.608q0-3.523,2.8-3.525a2.562,2.562,0,0,1,2.024.758,3.526,3.526,0,0,1,.671,2.379l-.054.763h-4.423a2.75,2.75,0,0,0,.4,1.65,1.642,1.642,0,0,0,1.4.536Q177.845,64.71,178.878,64.63Zm-.363-2.909a2.915,2.915,0,0,0-.4-1.743,1.531,1.531,0,0,0-1.287-.509,1.651,1.651,0,0,0-1.341.536,2.71,2.71,0,0,0-.462,1.716Z" fill="#1f2434"/>
      <path id="Pfad_213" data-name="Pfad 213" d="M182.094,65.461h-1.006V55.836h1.006v3.3a4.8,4.8,0,0,1,2.065-.51,1.977,1.977,0,0,1,1.8.725,5.1,5.1,0,0,1,.463,2.573v3.539h-1V61.948a4.537,4.537,0,0,0-.275-1.91,1.192,1.192,0,0,0-1.16-.515,4.456,4.456,0,0,0-1.635.308l-.255.094Z" fill="#1f2434"/>
      <path id="Pfad_214" data-name="Pfad 214" d="M188.288,65.461v-6.7h.992v.911a6.54,6.54,0,0,1,2.453-1.06v1.02a7.257,7.257,0,0,0-1.173.335,7.939,7.939,0,0,0-.932.4l-.334.175v4.92Z" fill="#1f2434"/>
      <path id="Pfad_215" data-name="Pfad 215" d="M197.35,64.63l.389-.041.026.791a19.067,19.067,0,0,1-2.614.215,2.357,2.357,0,0,1-2.051-.838,4.5,4.5,0,0,1-.6-2.608q0-3.523,2.8-3.525a2.563,2.563,0,0,1,2.025.758,3.526,3.526,0,0,1,.671,2.379l-.054.763h-4.424a2.75,2.75,0,0,0,.4,1.65,1.642,1.642,0,0,0,1.4.536Q196.318,64.71,197.35,64.63Zm-.362-2.909a2.907,2.907,0,0,0-.4-1.743,1.529,1.529,0,0,0-1.287-.509,1.653,1.653,0,0,0-1.341.536,2.71,2.71,0,0,0-.461,1.716Z" fill="#1f2434"/>
      <path id="Pfad_216" data-name="Pfad 216" d="M200.567,65.461h-1.006v-6.7h.992v.469a4.28,4.28,0,0,1,2.078-.6,1.978,1.978,0,0,1,1.8.725,5.1,5.1,0,0,1,.463,2.573v3.539H203.9V61.948a4.537,4.537,0,0,0-.275-1.91,1.206,1.206,0,0,0-1.173-.515,3.582,3.582,0,0,0-.9.126,4.528,4.528,0,0,0-.73.249l-.255.121Z" fill="#1f2434"/>
      <path id="Pfad_217" data-name="Pfad 217" d="M209.709,57.243V56.077h1.005v1.166Zm0,8.218v-6.7h1.005v6.7Z" fill="#1f2434"/>
      <path id="Pfad_218" data-name="Pfad 218" d="M213.65,65.461h-1.006v-6.7h.992v.469a3.8,3.8,0,0,1,1.957-.6,2.017,2.017,0,0,1,1.743.684,4.967,4.967,0,0,1,1.147-.476,4.433,4.433,0,0,1,1.239-.208,1.993,1.993,0,0,1,1.8.717,5.115,5.115,0,0,1,.462,2.581v3.539h-1.005V61.948a4.628,4.628,0,0,0-.269-1.91,1.159,1.159,0,0,0-1.139-.515,3.542,3.542,0,0,0-.911.126,4.529,4.529,0,0,0-.724.249l-.255.121a6.716,6.716,0,0,1,.174,1.957v3.485h-1V62a4.94,4.94,0,0,0-.262-1.965c-.173-.344-.556-.515-1.146-.515a3.285,3.285,0,0,0-.878.126,4.154,4.154,0,0,0-.69.249l-.228.121Z" fill="#1f2434"/>
      <path id="Pfad_219" data-name="Pfad 219" d="M232.726,65.461v-4.2h-4.719v4.2h-1.032V56.185h1.032V60.34h4.719V56.185h1.019v9.276Z" fill="#1f2434"/>
      <path id="Pfad_220" data-name="Pfad 220" d="M240.582,60.782v3.432q.04.5.777.59l-.04.791a2.161,2.161,0,0,1-1.6-.536,5.89,5.89,0,0,1-2.413.536,1.82,1.82,0,0,1-1.408-.523,2.136,2.136,0,0,1-.483-1.5,1.884,1.884,0,0,1,.5-1.441,2.623,2.623,0,0,1,1.554-.57l2.106-.2v-.576a1.352,1.352,0,0,0-.295-.978,1.091,1.091,0,0,0-.8-.3,19.129,19.129,0,0,0-2.225.135l-.416.039-.041-.764a13.573,13.573,0,0,1,2.615-.295,1.871,1.871,0,0,1,2.172,2.158Zm-4.129,2.735q0,1.233,1.018,1.234a5.412,5.412,0,0,0,1.8-.309l.309-.107V62.123l-1.985.188a1.3,1.3,0,0,0-.871.348A1.236,1.236,0,0,0,236.453,63.517Z" fill="#1f2434"/>
      <path id="Pfad_221" data-name="Pfad 221" d="M243.571,65.461h-1.006v-6.7h.992v.469a4.28,4.28,0,0,1,2.078-.6,1.979,1.979,0,0,1,1.8.725,5.1,5.1,0,0,1,.463,2.573v3.539h-.992V61.948a4.537,4.537,0,0,0-.275-1.91,1.206,1.206,0,0,0-1.173-.515,3.582,3.582,0,0,0-.9.126,4.528,4.528,0,0,0-.73.249l-.255.121Z" fill="#1f2434"/>
      <path id="Pfad_222" data-name="Pfad 222" d="M254.912,55.836v9.625h-.992V65a4.084,4.084,0,0,1-2.039.59,2.98,2.98,0,0,1-.938-.134,1.912,1.912,0,0,1-.75-.482,3.781,3.781,0,0,1-.725-2.675,4.746,4.746,0,0,1,.651-2.815,2.519,2.519,0,0,1,2.151-.865,8.526,8.526,0,0,1,1.65.174V55.836ZM251.426,64.6a1.756,1.756,0,0,0,.623.093,3.35,3.35,0,0,0,.858-.127,5.071,5.071,0,0,0,.744-.248l.269-.121V59.656a8.823,8.823,0,0,0-1.6-.161,1.535,1.535,0,0,0-1.421.651,3.934,3.934,0,0,0-.4,2.017,3.32,3.32,0,0,0,.469,2.092A1.156,1.156,0,0,0,251.426,64.6Z" fill="#1f2434"/>
      <path id="Pfad_223" data-name="Pfad 223" d="M256.306,58.759h1.005l1.355,5.83h.213l1.6-5.7h1.045l1.6,5.7h.227l1.341-5.83h1.006l-1.6,6.7h-1.675L261,60.22l-1.421,5.241H257.9Z" fill="#1f2434"/>
      <path id="Pfad_224" data-name="Pfad 224" d="M271.561,64.63l.389-.041.026.791a19.079,19.079,0,0,1-2.614.215,2.355,2.355,0,0,1-2.051-.838,4.5,4.5,0,0,1-.6-2.608q0-3.523,2.8-3.525a2.564,2.564,0,0,1,2.025.758,3.526,3.526,0,0,1,.671,2.379l-.054.763h-4.424a2.757,2.757,0,0,0,.4,1.65,1.646,1.646,0,0,0,1.4.536Q270.529,64.71,271.561,64.63Zm-.362-2.909a2.907,2.907,0,0,0-.4-1.743,1.529,1.529,0,0,0-1.287-.509,1.651,1.651,0,0,0-1.341.536,2.716,2.716,0,0,0-.462,1.716Z" fill="#1f2434"/>
      <path id="Pfad_225" data-name="Pfad 225" d="M273.772,65.461v-6.7h.992v.911a6.546,6.546,0,0,1,2.453-1.06v1.02a7.245,7.245,0,0,0-1.172.335,7.863,7.863,0,0,0-.932.4l-.335.175v4.92Z" fill="#1f2434"/>
      <path id="Pfad_226" data-name="Pfad 226" d="M279.417,65.461h-1.006V55.836h1.006V61.52l1.045-.054,1.917-2.707h1.139l-2.184,3.082,2.279,3.62h-1.14l-2-3.11-1.058.041Z" fill="#1f2434"/>
    </g>
  </g>
</svg>